<?xml version="1.0" encoding="utf-8" standalone="no"?>
<!DOCTYPE svg PUBLIC "-//W3C//DTD SVG 1.1//EN"
  "http://www.w3.org/Graphics/SVG/1.1/DTD/svg11.dtd">
<svg xmlns:xlink="http://www.w3.org/1999/xlink" width="864pt" height="379.2pt" viewBox="0 0 864 379.2" xmlns="http://www.w3.org/2000/svg" version="1.1">
 <metadata>
  <rdf:RDF xmlns:dc="http://purl.org/dc/elements/1.1/" xmlns:cc="http://creativecommons.org/ns#" xmlns:rdf="http://www.w3.org/1999/02/22-rdf-syntax-ns#">
   <cc:Work>
    <dc:type rdf:resource="http://purl.org/dc/dcmitype/StillImage"/>
    <dc:format>image/svg+xml</dc:format>
    <dc:creator>
     <cc:Agent>
      <dc:title>Matplotlib v3.10.5, https://matplotlib.org/</dc:title>
     </cc:Agent>
    </dc:creator>
   </cc:Work>
  </rdf:RDF>
 </metadata>
 <defs>
  <style type="text/css">*{stroke-linejoin: round; stroke-linecap: butt}</style>
 </defs>
 <g id="figure_1">
  <g id="patch_1">
   <path d="M 0 379.2
L 864 379.2
L 864 0
L 0 0
z
" style="fill: #ffffff"/>
  </g>
  <g id="axes_1">
   <g id="patch_2">
    <path d="M 35.52 76.8
L 396.48 76.8
Q 403.2 76.8 403.2 83.52
L 403.2 137.76
Q 403.2 144.48 396.48 144.48
L 35.52 144.48
Q 28.8 144.48 28.8 137.76
L 28.8 83.52
Q 28.8 76.8 35.52 76.8
z
" clip-path="url(#p6a530f49fc)" style="fill: #ffffff; stroke: #0f766e; stroke-width: 1.1; stroke-linejoin: miter"/>
   </g>
   <g id="patch_3">
    <path d="M 467.52 76.8
L 828.48 76.8
Q 835.2 76.8 835.2 83.52
L 835.2 152.64
Q 835.2 159.36 828.48 159.36
L 467.52 159.36
Q 460.8 159.36 460.8 152.64
L 460.8 83.52
Q 460.8 76.8 467.52 76.8
z
" clip-path="url(#p6a530f49fc)" style="fill: #ffffff; stroke: #7c3aed; stroke-width: 1.1; stroke-linejoin: miter"/>
   </g>
   <g id="patch_4">
    <path d="M 432 170.4
Q 432 178.502344 432 185.03944
" clip-path="url(#p6a530f49fc)" style="fill: none; stroke: #0f766e; stroke-width: 1.4; stroke-linecap: round"/>
    <path d="M 434.8 179.43944
L 432 185.03944
L 429.2 179.43944
z
" clip-path="url(#p6a530f49fc)" style="fill: #0f766e; stroke: #0f766e; stroke-width: 1.4; stroke-linecap: round"/>
   </g>
   <g id="patch_5">
    <path d="M 648 170.4
Q 541.501282 170.4 436.567811 170.4
" clip-path="url(#p6a530f49fc)" style="fill: none; stroke: #7c3aed; stroke-width: 1.4; stroke-linecap: round"/>
    <path d="M 442.167811 173.2
L 436.567811 170.4
L 442.167811 167.6
z
" clip-path="url(#p6a530f49fc)" style="fill: #7c3aed; stroke: #7c3aed; stroke-width: 1.4; stroke-linecap: round"/>
   </g>
   <g id="patch_6">
    <path d="M 35.52 189.6
L 828.48 189.6
Q 835.2 189.6 835.2 196.32
L 835.2 230.88
Q 835.2 237.6 828.48 237.6
L 35.52 237.6
Q 28.8 237.6 28.8 230.88
L 28.8 196.32
Q 28.8 189.6 35.52 189.6
z
" clip-path="url(#p6a530f49fc)" style="fill: #eff9f6; stroke: #0f766e; stroke-width: 1.1; stroke-linejoin: miter"/>
   </g>
   <g id="patch_7">
    <path d="M 35.52 266.4
L 396.48 266.4
Q 403.2 266.4 403.2 273.12
L 403.2 327.36
Q 403.2 334.08 396.48 334.08
L 35.52 334.08
Q 28.8 334.08 28.8 327.36
L 28.8 273.12
Q 28.8 266.4 35.52 266.4
z
" clip-path="url(#p6a530f49fc)" style="fill: #ffffff; stroke: #0f766e; stroke-width: 1.1; stroke-linejoin: miter"/>
   </g>
   <g id="patch_8">
    <path d="M 467.52 266.4
L 828.48 266.4
Q 835.2 266.4 835.2 273.12
L 835.2 327.36
Q 835.2 334.08 828.48 334.08
L 467.52 334.08
Q 460.8 334.08 460.8 327.36
L 460.8 273.12
Q 460.8 266.4 467.52 266.4
z
" clip-path="url(#p6a530f49fc)" style="fill: #ffffff; stroke: #b45309; stroke-width: 1.1; stroke-linejoin: miter"/>
   </g>
   <g id="patch_9">
    <path d="M 240 237.6
Q 228.959473 250.848633 218.920992 262.894809
" clip-path="url(#p6a530f49fc)" style="fill: none; stroke: #0f766e; stroke-width: 1.4; stroke-linecap: round"/>
    <path d="M 224.657045 260.385286
L 218.920992 262.894809
L 220.355005 256.800254
z
" clip-path="url(#p6a530f49fc)" style="fill: #0f766e; stroke: #0f766e; stroke-width: 1.4; stroke-linecap: round"/>
   </g>
   <g id="patch_10">
    <path d="M 624 237.6
Q 635.040527 250.848633 645.079008 262.894809
" clip-path="url(#p6a530f49fc)" style="fill: none; stroke: #b45309; stroke-width: 1.4; stroke-linecap: round"/>
    <path d="M 643.644995 256.800254
L 645.079008 262.894809
L 639.342955 260.385286
z
" clip-path="url(#p6a530f49fc)" style="fill: #b45309; stroke: #b45309; stroke-width: 1.4; stroke-linecap: round"/>
   </g>
   <g id="line2d_1">
    <path d="M 36 85.92
L 36 135.36
" clip-path="url(#p6a530f49fc)" style="fill: none; stroke: #0f766e; stroke-width: 3; stroke-linecap: round"/>
   </g>
   <g id="line2d_2">
    <path d="M 468 85.92
L 468 150.24
" clip-path="url(#p6a530f49fc)" style="fill: none; stroke: #7c3aed; stroke-width: 3; stroke-linecap: round"/>
   </g>
   <g id="line2d_3">
    <path d="M 216 147.36
L 216 170.4
L 432 170.4
" clip-path="url(#p6a530f49fc)" style="fill: none; stroke: #0f766e; stroke-width: 1.4; stroke-linecap: square"/>
   </g>
   <g id="line2d_4">
    <path d="M 648 162.24
L 648 170.4
" clip-path="url(#p6a530f49fc)" style="fill: none; stroke: #7c3aed; stroke-width: 1.4; stroke-linecap: square"/>
   </g>
   <g id="line2d_5">
    <path d="M 36 275.52
L 36 324.96
" clip-path="url(#p6a530f49fc)" style="fill: none; stroke: #0f766e; stroke-width: 3; stroke-linecap: round"/>
   </g>
   <g id="line2d_6">
    <path d="M 468 275.52
L 468 324.96
" clip-path="url(#p6a530f49fc)" style="fill: none; stroke: #b45309; stroke-width: 3; stroke-linecap: round"/>
   </g>
   <g id="text_1">
    <text style="font-weight: 700; font-size: 16.32px; font-family: 'DejaVu Sans'; text-anchor: start; fill: #172b4d" x="28.8" y="29.20065" transform="rotate(-0 28.8 29.20065)">04 / RETAINED AND EXCLUDED CONTIGS</text>
   </g>
   <g id="text_2">
    <text style="font-size: 11.04px; font-family: 'DejaVu Sans'; text-anchor: start; fill: #526277" x="28.8" y="50.628675" transform="rotate(-0 28.8 50.628675)">A length/depth and assigned-host decision — not a geNomad-positive filter</text>
   </g>
   <g id="text_3">
    <text style="font-weight: 700; font-size: 12.96px; font-family: 'DejaVu Sans'; text-anchor: start; fill: #0f766e" x="44.16" y="95.287575" transform="rotate(-0 44.16 95.287575)">Own assembly + full-read mapping</text>
   </g>
   <g id="text_4">
    <text style="font-size: 11.04px; font-family: 'DejaVu Sans'; text-anchor: start; fill: #172b4d" x="44.16" y="114.468675" transform="rotate(-0 44.16 114.468675)">Saved contigs ≥1,000 bp; use own-assembly mean depth</text>
   </g>
   <g id="text_5">
    <text style="font-size: 11.04px; font-family: 'DejaVu Sans'; text-anchor: start; fill: #172b4d" x="44.16" y="129.348675" transform="rotate(-0 44.16 129.348675)">Depth ≥5× AND (length ≥4,000 bp OR depth ≥10×)</text>
   </g>
   <g id="text_6">
    <text style="font-weight: 700; font-size: 12.96px; font-family: 'DejaVu Sans'; text-anchor: start; fill: #7c3aed" x="476.16" y="95.287575" transform="rotate(-0 476.16 95.287575)">Assigned-host BLAST screen</text>
   </g>
   <g id="text_7">
    <text style="font-size: 10.56px; font-family: 'DejaVu Sans'; text-anchor: start; fill: #172b4d" x="476.16" y="114.10395" transform="rotate(-0 476.16 114.10395)">Identity ≥90% AND query coverage ≥90%</text>
   </g>
   <g id="text_8">
    <text style="font-size: 10.56px; font-family: 'DejaVu Sans'; text-anchor: start; fill: #172b4d" x="476.16" y="128.98395" transform="rotate(-0 476.16 128.98395)">Query coverage is the fraction of the isolate contig</text>
   </g>
   <g id="text_9">
    <text style="font-size: 10.56px; font-family: 'DejaVu Sans'; text-anchor: start; fill: #172b4d" x="476.16" y="143.86395" transform="rotate(-0 476.16 143.86395)">Match assigned chromosome OR predicted host viral regions</text>
   </g>
   <g id="text_10">
    <text style="font-weight: 700; font-size: 11.52px; font-family: 'DejaVu Sans'; text-anchor: start; fill: #0f766e" x="39.36" y="205.5534" transform="rotate(-0 39.36 205.5534)">RETAIN ONLY WHEN</text>
   </g>
   <g id="text_11">
    <text style="font-size: 11.04px; font-family: 'DejaVu Sans'; text-anchor: start; fill: #172b4d" x="39.36" y="223.428675" transform="rotate(-0 39.36 223.428675)">Coverage rule passes AND there is no qualifying assigned-host chromosome / viral-region match.</text>
   </g>
   <g id="text_12">
    <text style="font-weight: 700; font-size: 12.96px; font-family: 'DejaVu Sans'; text-anchor: start; fill: #0f766e" x="44.16" y="284.887575" transform="rotate(-0 44.16 284.887575)">Retained FASTA</text>
   </g>
   <g id="text_13">
    <text style="font-size: 11.04px; font-family: 'DejaVu Sans'; text-anchor: start; fill: #172b4d" x="44.16" y="304.068675" transform="rotate(-0 44.16 304.068675)">Coverage-supported; no qualifying assigned-host match</text>
   </g>
   <g id="text_14">
    <text style="font-size: 11.04px; font-family: 'DejaVu Sans'; text-anchor: start; fill: #172b4d" x="44.16" y="318.948675" transform="rotate(-0 44.16 318.948675)">geNomad-negative / unclassified contigs can be retained</text>
   </g>
   <g id="text_15">
    <text style="font-weight: 700; font-size: 12.96px; font-family: 'DejaVu Sans'; text-anchor: start; fill: #b45309" x="476.16" y="284.887575" transform="rotate(-0 476.16 284.887575)">Excluded FASTA + reason</text>
   </g>
   <g id="text_16">
    <text style="font-size: 11.04px; font-family: 'DejaVu Sans'; text-anchor: start; fill: #172b4d" x="476.16" y="304.068675" transform="rotate(-0 476.16 304.068675)">Length/depth fails OR qualifying assigned-host match</text>
   </g>
   <g id="text_17">
    <text style="font-size: 11.04px; font-family: 'DejaVu Sans'; text-anchor: start; fill: #172b4d" x="476.16" y="318.948675" transform="rotate(-0 476.16 318.948675)">Supported host-prophage matches are excluded + flagged</text>
   </g>
   <g id="text_18">
    <text style="font-size: 10.56px; font-family: 'DejaVu Sans'; text-anchor: start; fill: #526277" x="28.8" y="352.18395" transform="rotate(-0 28.8 352.18395)">Both sets are saved and enter the global catalogue. Other-host matches do not drive exclusion.</text>
   </g>
   <g id="text_19">
    <text style="font-size: 10.56px; font-family: 'DejaVu Sans'; text-anchor: start; fill: #526277" x="28.8" y="370.90395" transform="rotate(-0 28.8 370.90395)">MOSAIC / phage_isolates · conceptual methods diagram · config.yaml defaults</text>
   </g>
  </g>
 </g>
 <defs>
  <clipPath id="p6a530f49fc">
   <rect x="0" y="0" width="864" height="379.2"/>
  </clipPath>
 </defs>
</svg>
